# xmcd
#
# Track frame offsets: 
#        150
#        16607
#        38497
#        52379
#        66372
#        84652
#        103162
#        121662
#        136724
#        153647
#        173054
#        192324
#        208939
#        231019
#
# Disc length: 3312 seconds
#
# Revision: 0
# Processed by: cddbd v1.5.2PL0 Copyright (c) Steve Scherf et al.
# Submitted via: ExactAudioCopyFreeDBPlugin 1.0
#
DISCID=bb0cee0e
DTITLE=Céline Dion - The French Love Album
DYEAR=1997
DGENRE=Pop
TTITLE0=Mon ami m'a quittée
TTITLE1=La dodo La Do
TTITLE2=Hymne à l'amitié
TTITLE3=Je ne veux pas
TTITLE4=C'est pour vivre
TTITLE5=En amour
TTITLE6=Ne me plaignez pas
TTITLE7=Les chemins de ma maison
TTITLE8=Hello Mister Sam
TTITLE9=Trois heurs vingt
TTITLE10=Trop jeune à dix-sept ans
TTITLE11=Paul et Virginie
TTITLE12=La voix du Bon Dieu
TTITLE13=Benjamin
EXTD=
EXTT0=
EXTT1=
EXTT2=
EXTT3=
EXTT4=
EXTT5=
EXTT6=
EXTT7=
EXTT8=
EXTT9=
EXTT10=
EXTT11=
EXTT12=
EXTT13=
PLAYORDER=
